<svg width="32" height="32" viewBox="0 0 32 32" fill="none" xmlns="http://www.w3.org/2000/svg">
<g id="Navi">
<path id="Vector" d="M14.56 4.55527L4.96 12.4524C4.36 12.946 4 13.6864 4 14.4267V25.5321C4 26.8895 5.08 28 6.4 28H11.2V20.5964C11.2 19.2391 12.28 18.1285 13.6 18.1285H18.4C19.72 18.1285 20.8 19.2391 20.8 20.5964V28H25.6C26.92 28 28 26.8895 28 25.5321V14.4267C28 13.6864 27.64 12.946 27.04 12.4524L17.44 4.55527C16.72 3.81491 15.4 3.81491 14.56 4.55527Z" fill="white"/>
<path id="Vector_2" d="M14.56 4.55527L4.96 12.4524C4.36 12.946 4 13.6864 4 14.4267V25.5321C4 26.8895 5.08 28 6.4 28H11.2V20.5964C11.2 19.2391 12.28 18.1285 13.6 18.1285H18.4C19.72 18.1285 20.8 19.2391 20.8 20.5964V28H25.6C26.92 28 28 26.8895 28 25.5321V14.4267C28 13.6864 27.64 12.946 27.04 12.4524L17.44 4.55527C16.72 3.81491 15.4 3.81491 14.56 4.55527Z" fill="white"/>
</g>
</svg>
