<svg width="32" height="32" viewBox="0 0 32 32" fill="none" xmlns="http://www.w3.org/2000/svg">
<g id="Navi">
<path id="Vector" d="M16 12.736L20.8464 10.8L8.84635 6L4.70875 7.6544C4.49999 7.7375 4.30394 7.84953 4.12635 7.9872L16 12.7376V12.736ZM3.25595 9.3648C3.21863 9.53453 3.19985 9.70781 3.19995 9.8816V22.1152C3.19987 22.595 3.34358 23.0637 3.61252 23.461C3.88146 23.8583 4.2633 24.1658 4.70875 24.344L13.92 28.0288C14.336 28.1952 14.7648 28.3088 15.2 28.3712V14.1408L3.25595 9.3632V9.3648ZM16.8 28.3728C17.2387 28.3097 17.6683 28.1948 18.08 28.0304L27.2912 24.3456C27.7369 24.1673 28.1189 23.8595 28.3878 23.4619C28.6568 23.0643 28.8004 22.5952 28.8 22.1152V9.8816C28.8 9.7056 28.7808 9.5312 28.744 9.3632L16.8 14.1408V28.3712V28.3728ZM27.8736 7.9888L23 9.9392L11 5.1392L13.92 3.968C15.2552 3.43384 16.7447 3.43384 18.08 3.968L27.2912 7.6528C27.4999 7.73592 27.696 7.84795 27.8736 7.9856V7.9888Z" fill="white"/>
<path id="Vector_2" d="M16 12.736L20.8464 10.8L8.84635 6L4.70875 7.6544C4.49999 7.7375 4.30394 7.84953 4.12635 7.9872L16 12.7376V12.736ZM3.25595 9.3648C3.21863 9.53453 3.19985 9.70781 3.19995 9.8816V22.1152C3.19987 22.595 3.34358 23.0637 3.61252 23.461C3.88146 23.8583 4.2633 24.1658 4.70875 24.344L13.92 28.0288C14.336 28.1952 14.7648 28.3088 15.2 28.3712V14.1408L3.25595 9.3632V9.3648ZM16.8 28.3728C17.2387 28.3097 17.6683 28.1948 18.08 28.0304L27.2912 24.3456C27.7369 24.1673 28.1189 23.8595 28.3878 23.4619C28.6568 23.0643 28.8004 22.5952 28.8 22.1152V9.8816C28.8 9.7056 28.7808 9.5312 28.744 9.3632L16.8 14.1408V28.3712V28.3728ZM27.8736 7.9888L23 9.9392L11 5.1392L13.92 3.968C15.2552 3.43384 16.7447 3.43384 18.08 3.968L27.2912 7.6528C27.4999 7.73592 27.696 7.84795 27.8736 7.9856V7.9888Z" fill="white"/>
</g>
</svg>
