<svg width="32" height="32" viewBox="0 0 32 32" fill="none" xmlns="http://www.w3.org/2000/svg">
<g id="Navi">
<path id="Exclude" fill-rule="evenodd" clip-rule="evenodd" d="M26.3787 5.51493C26.1561 4.62459 25.3562 4 24.4384 4H18V12H14V4H7.56155C6.64382 4 5.84385 4.62459 5.62127 5.51493L4.05971 11.7611C4.02005 11.9198 4 12.0827 4 12.2462V26C4 27.1046 4.89543 28 6 28H26C27.1046 28 28 27.1046 28 26V12.2462C28 12.0827 27.9799 11.9198 27.9403 11.7611L26.3787 5.51493ZM21 17C21 16.4477 20.5523 16 20 16H12C11.4477 16 11 16.4477 11 17V18C11 18.5523 11.4477 19 12 19H20C20.5523 19 21 18.5523 21 18V17Z" fill="white"/>
<path id="Exclude_2" fill-rule="evenodd" clip-rule="evenodd" d="M26.3787 5.51493C26.1561 4.62459 25.3562 4 24.4384 4H18V12H14V4H7.56155C6.64382 4 5.84385 4.62459 5.62127 5.51493L4.05971 11.7611C4.02005 11.9198 4 12.0827 4 12.2462V26C4 27.1046 4.89543 28 6 28H26C27.1046 28 28 27.1046 28 26V12.2462C28 12.0827 27.9799 11.9198 27.9403 11.7611L26.3787 5.51493ZM21 17C21 16.4477 20.5523 16 20 16H12C11.4477 16 11 16.4477 11 17V18C11 18.5523 11.4477 19 12 19H20C20.5523 19 21 18.5523 21 18V17Z" fill="white"/>
</g>
</svg>
