<svg width="32" height="32" viewBox="0 0 32 32" fill="none" xmlns="http://www.w3.org/2000/svg">
<g id="Navi">
<path id="Exclude" fill-rule="evenodd" clip-rule="evenodd" d="M24 5H19C19 3.34315 17.6569 2 16 2C14.3431 2 13 3.34315 13 5H8C6.89543 5 6 5.89543 6 7V26C6 27.1046 6.89543 28 8 28H24C25.1046 28 26 27.1046 26 26V7C26 5.89543 25.1046 5 24 5ZM10 10C9.44772 10 9 10.4477 9 11C9 11.5523 9.44771 12 10 12H22.0004C22.5526 12 23.0004 11.5523 23.0004 11C23.0004 10.4477 22.5526 10 22.0004 10H10ZM9 17C9 16.4477 9.44772 16 10 16H22.0004C22.5526 16 23.0004 16.4477 23.0004 17C23.0004 17.5523 22.5526 18 22.0004 18H10C9.44771 18 9 17.5523 9 17ZM10 22C9.44772 22 9 22.4477 9 23C9 23.5523 9.44772 24 10 24H16.0002C16.5525 24 17.0002 23.5523 17.0002 23C17.0002 22.4477 16.5525 22 16.0002 22H10Z" fill="white"/>
<path id="Exclude_2" fill-rule="evenodd" clip-rule="evenodd" d="M24 5H19C19 3.34315 17.6569 2 16 2C14.3431 2 13 3.34315 13 5H8C6.89543 5 6 5.89543 6 7V26C6 27.1046 6.89543 28 8 28H24C25.1046 28 26 27.1046 26 26V7C26 5.89543 25.1046 5 24 5ZM10 10C9.44772 10 9 10.4477 9 11C9 11.5523 9.44771 12 10 12H22.0004C22.5526 12 23.0004 11.5523 23.0004 11C23.0004 10.4477 22.5526 10 22.0004 10H10ZM9 17C9 16.4477 9.44772 16 10 16H22.0004C22.5526 16 23.0004 16.4477 23.0004 17C23.0004 17.5523 22.5526 18 22.0004 18H10C9.44771 18 9 17.5523 9 17ZM10 22C9.44772 22 9 22.4477 9 23C9 23.5523 9.44772 24 10 24H16.0002C16.5525 24 17.0002 23.5523 17.0002 23C17.0002 22.4477 16.5525 22 16.0002 22H10Z" fill="white"/>
</g>
</svg>
