<svg width="32" height="32" viewBox="0 0 32 32" fill="none" xmlns="http://www.w3.org/2000/svg">
<g id="Navi">
<path id="Exclude" fill-rule="evenodd" clip-rule="evenodd" d="M28.4651 15.3589C28.7749 15.73 28.7749 16.2696 28.4651 16.6406L26.3811 19.137C26.2116 19.3401 26.1294 19.602 26.1526 19.8655L26.4426 23.1622C26.486 23.6564 26.1606 24.1078 25.6779 24.2226L22.6761 24.9369C22.4056 25.0013 22.1741 25.1754 22.0372 25.4175L20.4672 28.1936C20.2129 28.6433 19.6577 28.8252 19.1865 28.6132L16.4117 27.365C16.15 27.2472 15.8503 27.2476 15.5889 27.366L12.8148 28.6225C12.3432 28.8361 11.7866 28.6545 11.5318 28.2039L9.96293 25.4299C9.82604 25.1878 9.59452 25.0137 9.32399 24.9493L6.32202 24.235C5.83945 24.1201 5.514 23.6689 5.55735 23.1747L5.84763 19.8654C5.87073 19.602 5.78857 19.3401 5.61912 19.1371L3.53409 16.6395C3.22474 16.2689 3.22426 15.7303 3.53296 15.3592L5.62034 12.8497C5.78904 12.6469 5.87077 12.3857 5.84772 12.1229L5.55755 8.81486C5.51412 8.31967 5.84101 7.86776 6.32491 7.75401L9.32212 7.04948C9.59376 6.98563 9.82637 6.81118 9.96374 6.56829L11.5329 3.79365C11.7873 3.34389 12.3424 3.16197 12.8136 3.37396L15.5898 4.62285C15.8507 4.74023 16.1494 4.74023 16.4103 4.62285L19.1854 3.37446C19.6571 3.16227 20.2127 3.34478 20.4668 3.79532L22.0373 6.58111C22.1741 6.82376 22.4059 6.99835 22.6769 7.06284L25.6779 7.77697C26.1606 7.89182 26.486 8.34319 26.4426 8.83742L26.1526 12.1341C26.1294 12.3976 26.2116 12.6595 26.3811 12.8626L28.4651 15.3589ZM12.7743 15.8784L14.2786 17.4373L19.2259 12.3156C19.632 11.8949 20.2966 11.895 20.7027 12.3158C21.0991 12.7266 21.0991 13.3842 20.7027 13.795L15.0196 19.6845C14.6135 20.1053 13.9487 20.1053 13.5426 19.6845L11.2973 17.3577C10.9009 16.9468 10.9009 16.2892 11.2973 15.8784C11.7034 15.4575 12.3682 15.4575 12.7743 15.8784Z" fill="white"/>
<path id="Exclude_2" fill-rule="evenodd" clip-rule="evenodd" d="M28.4651 15.3589C28.7749 15.73 28.7749 16.2696 28.4651 16.6406L26.3811 19.137C26.2116 19.3401 26.1294 19.602 26.1526 19.8655L26.4426 23.1622C26.486 23.6564 26.1606 24.1078 25.6779 24.2226L22.6761 24.9369C22.4056 25.0013 22.1741 25.1754 22.0372 25.4175L20.4672 28.1936C20.2129 28.6433 19.6577 28.8252 19.1865 28.6132L16.4117 27.365C16.15 27.2472 15.8503 27.2476 15.5889 27.366L12.8148 28.6225C12.3432 28.8361 11.7866 28.6545 11.5318 28.2039L9.96293 25.4299C9.82604 25.1878 9.59452 25.0137 9.32399 24.9493L6.32202 24.235C5.83945 24.1201 5.514 23.6689 5.55735 23.1747L5.84763 19.8654C5.87073 19.602 5.78857 19.3401 5.61912 19.1371L3.53409 16.6395C3.22474 16.2689 3.22426 15.7303 3.53296 15.3592L5.62034 12.8497C5.78904 12.6469 5.87077 12.3857 5.84772 12.1229L5.55755 8.81486C5.51412 8.31967 5.84101 7.86776 6.32491 7.75401L9.32212 7.04948C9.59376 6.98563 9.82637 6.81118 9.96374 6.56829L11.5329 3.79365C11.7873 3.34389 12.3424 3.16197 12.8136 3.37396L15.5898 4.62285C15.8507 4.74023 16.1494 4.74023 16.4103 4.62285L19.1854 3.37446C19.6571 3.16227 20.2127 3.34478 20.4668 3.79532L22.0373 6.58111C22.1741 6.82376 22.4059 6.99835 22.6769 7.06284L25.6779 7.77697C26.1606 7.89182 26.486 8.34319 26.4426 8.83742L26.1526 12.1341C26.1294 12.3976 26.2116 12.6595 26.3811 12.8626L28.4651 15.3589ZM12.7743 15.8784L14.2786 17.4373L19.2259 12.3156C19.632 11.8949 20.2966 11.895 20.7027 12.3158C21.0991 12.7266 21.0991 13.3842 20.7027 13.795L15.0196 19.6845C14.6135 20.1053 13.9487 20.1053 13.5426 19.6845L11.2973 17.3577C10.9009 16.9468 10.9009 16.2892 11.2973 15.8784C11.7034 15.4575 12.3682 15.4575 12.7743 15.8784Z" fill="white"/>
</g>
</svg>
