<svg width="32" height="32" viewBox="0 0 32 32" fill="none" xmlns="http://www.w3.org/2000/svg">
<g id="Navi">
<path id="Exclude" fill-rule="evenodd" clip-rule="evenodd" d="M2 7C2 6.44772 2.44772 6 3 6H19.0156C19.4805 6 19.8841 6.32043 19.9895 6.77326L21.2064 12H26C26.7082 12 27.3635 12.3745 27.7231 12.9846L31 18.5455V24H26.9646C26.9879 24.1633 27 24.3302 27 24.5C27 26.433 25.433 28 23.5 28C21.567 28 20 26.433 20 24.5C20 24.3302 20.0121 24.1633 20.0354 24H19H11.9646C11.9879 24.1633 12 24.3302 12 24.5C12 26.433 10.433 28 8.5 28C6.567 28 5 26.433 5 24.5C5 24.3302 5.01209 24.1633 5.03544 24H3C2.44772 24 2 23.5523 2 23V7ZM22 15C21.4477 15 21 15.4477 21 16V18C21 18.5523 21.4477 19 22 19H25.6958C26.4812 19 26.96 18.136 26.5438 17.47L25.2938 15.47C25.111 15.1776 24.7905 15 24.4458 15H22Z" fill="white"/>
<path id="Exclude_2" fill-rule="evenodd" clip-rule="evenodd" d="M2 7C2 6.44772 2.44772 6 3 6H19.0156C19.4805 6 19.8841 6.32043 19.9895 6.77326L21.2064 12H26C26.7082 12 27.3635 12.3745 27.7231 12.9846L31 18.5455V24H26.9646C26.9879 24.1633 27 24.3302 27 24.5C27 26.433 25.433 28 23.5 28C21.567 28 20 26.433 20 24.5C20 24.3302 20.0121 24.1633 20.0354 24H19H11.9646C11.9879 24.1633 12 24.3302 12 24.5C12 26.433 10.433 28 8.5 28C6.567 28 5 26.433 5 24.5C5 24.3302 5.01209 24.1633 5.03544 24H3C2.44772 24 2 23.5523 2 23V7ZM22 15C21.4477 15 21 15.4477 21 16V18C21 18.5523 21.4477 19 22 19H25.6958C26.4812 19 26.96 18.136 26.5438 17.47L25.2938 15.47C25.111 15.1776 24.7905 15 24.4458 15H22Z" fill="white"/>
</g>
</svg>
