<svg width="32" height="32" viewBox="0 0 32 32" fill="none" xmlns="http://www.w3.org/2000/svg">
<g id="Navi">
<path id="Vector" d="M14.7979 4.32908V27.6709C14.7979 28.5178 14.0245 29.1529 13.2117 28.9677C7.35211 27.6445 3 22.3383 3 16C3 9.66171 7.35211 4.35554 13.2117 3.03231C14.0245 2.84706 14.7979 3.48221 14.7979 4.32908ZM17.459 4.32908V13.3403C17.459 14.0681 18.0489 14.6635 18.7698 14.6635H27.6707C28.5097 14.6635 29.1389 13.8828 28.9554 13.0492C27.8411 8.07383 23.974 4.15706 19.0582 3.03231C18.2324 2.84706 17.459 3.48221 17.459 4.32908ZM17.459 18.6597V27.6709C17.459 28.5178 18.2324 29.1529 19.0582 28.9677C23.9871 27.8429 27.8542 23.9129 28.9685 18.9376C29.152 18.1172 28.5097 17.3232 27.6838 17.3232H18.783C18.0489 17.3365 17.459 17.9319 17.459 18.6597Z" fill="white"/>
<path id="Vector_2" d="M14.7979 4.32908V27.6709C14.7979 28.5178 14.0245 29.1529 13.2117 28.9677C7.35211 27.6445 3 22.3383 3 16C3 9.66171 7.35211 4.35554 13.2117 3.03231C14.0245 2.84706 14.7979 3.48221 14.7979 4.32908ZM17.459 4.32908V13.3403C17.459 14.0681 18.0489 14.6635 18.7698 14.6635H27.6707C28.5097 14.6635 29.1389 13.8828 28.9554 13.0492C27.8411 8.07383 23.974 4.15706 19.0582 3.03231C18.2324 2.84706 17.459 3.48221 17.459 4.32908ZM17.459 18.6597V27.6709C17.459 28.5178 18.2324 29.1529 19.0582 28.9677C23.9871 27.8429 27.8542 23.9129 28.9685 18.9376C29.152 18.1172 28.5097 17.3232 27.6838 17.3232H18.783C18.0489 17.3365 17.459 17.9319 17.459 18.6597Z" fill="white"/>
</g>
</svg>
