<svg width="32" height="32" viewBox="0 0 32 32" fill="none" xmlns="http://www.w3.org/2000/svg">
<g id="ant-design:setting-outlined">
<path id="Vector" d="M28.8999 19.5532L26.853 17.8032C26.9499 17.2094 26.9999 16.6032 26.9999 15.9969C26.9999 15.3907 26.9499 14.7844 26.853 14.1907L28.8999 12.4407C29.0543 12.3085 29.1648 12.1325 29.2167 11.936C29.2686 11.7395 29.2595 11.5318 29.1905 11.3407L29.1624 11.2594C28.5989 9.68451 27.7551 8.22453 26.6718 6.95005L26.6155 6.88442C26.4841 6.7299 26.309 6.61882 26.1132 6.56582C25.9173 6.51283 25.7101 6.5204 25.5187 6.58755L22.978 7.49067C22.0405 6.72192 20.9937 6.11567 19.8624 5.69067L19.3718 3.03442C19.3348 2.83456 19.2378 2.65068 19.0938 2.50723C18.9498 2.36378 18.7655 2.26754 18.5655 2.2313L18.4812 2.21567C16.853 1.92192 15.1405 1.92192 13.5124 2.21567L13.428 2.2313C13.228 2.26754 13.0438 2.36378 12.8998 2.50723C12.7558 2.65068 12.6588 2.83456 12.6218 3.03442L12.128 5.70317C11.0058 6.12826 9.96074 6.73419 9.03428 7.49692L6.47491 6.58755C6.28355 6.51987 6.07613 6.51202 5.88021 6.56505C5.68428 6.61808 5.50913 6.72947 5.37803 6.88442L5.32178 6.95005C4.23974 8.22544 3.39608 9.68516 2.83116 11.2594L2.80303 11.3407C2.66241 11.7313 2.77803 12.1688 3.09366 12.4407L5.16553 14.2094C5.06866 14.7969 5.02178 15.3969 5.02178 15.9938C5.02178 16.5938 5.06866 17.1938 5.16553 17.7782L3.09366 19.5469C2.93927 19.6791 2.82877 19.8551 2.77686 20.0516C2.72494 20.2481 2.73407 20.4557 2.80303 20.6469L2.83116 20.7282C3.39678 22.3032 4.23428 23.7563 5.32178 25.0375L5.37803 25.1032C5.50945 25.2577 5.68461 25.3688 5.88042 25.4218C6.07622 25.4748 6.28349 25.4672 6.47491 25.4L9.03428 24.4907C9.96553 25.2563 11.0062 25.8625 12.128 26.2844L12.6218 28.9532C12.6588 29.153 12.7558 29.3369 12.8998 29.4804C13.0438 29.6238 13.228 29.7201 13.428 29.7563L13.5124 29.7719C15.1555 30.0672 16.8381 30.0672 18.4812 29.7719L18.5655 29.7563C18.7655 29.7201 18.9498 29.6238 19.0938 29.4804C19.2378 29.3369 19.3348 29.153 19.3718 28.9532L19.8624 26.2969C20.9932 25.873 22.046 25.2648 22.978 24.4969L25.5187 25.4C25.71 25.4677 25.9174 25.4756 26.1134 25.4226C26.3093 25.3695 26.4844 25.2581 26.6155 25.1032L26.6718 25.0375C27.7593 23.7532 28.5968 22.3032 29.1624 20.7282L29.1905 20.6469C29.3312 20.2626 29.2155 19.8251 28.8999 19.5532ZM24.6343 14.5594C24.7124 15.0313 24.753 15.5157 24.753 16C24.753 16.4844 24.7124 16.9688 24.6343 17.4407L24.428 18.6938L26.7624 20.6907C26.4085 21.506 25.9618 22.2777 25.4312 22.9907L22.5312 21.9625L21.5499 22.7688C20.803 23.3813 19.9718 23.8626 19.0718 24.2001L17.8812 24.6469L17.3218 27.6782C16.4392 27.7782 15.5481 27.7782 14.6655 27.6782L14.1062 24.6407L12.9249 24.1875C12.0343 23.85 11.2062 23.3688 10.4655 22.7594L9.48428 21.9501L6.56553 22.9875C6.03428 22.2719 5.59053 21.5 5.23428 20.6875L7.59366 18.6719L7.39053 17.4219C7.31553 16.9563 7.27491 16.475 7.27491 16C7.27491 15.5219 7.31241 15.0438 7.39053 14.5782L7.59366 13.3282L5.23428 11.3125C5.58741 10.4969 6.03428 9.72817 6.56553 9.01255L9.48428 10.05L10.4655 9.24067C11.2062 8.6313 12.0343 8.15005 12.9249 7.81255L14.1093 7.36567L14.6687 4.32817C15.5468 4.22817 16.4437 4.22817 17.3249 4.32817L17.8843 7.35942L19.0749 7.8063C19.9718 8.1438 20.8062 8.62505 21.553 9.23755L22.5343 10.0438L25.4343 9.01567C25.9655 9.7313 26.4093 10.5032 26.7655 11.3157L24.4312 13.3125L24.6343 14.5594ZM15.9999 10.1875C12.9624 10.1875 10.4999 12.65 10.4999 15.6875C10.4999 18.725 12.9624 21.1875 15.9999 21.1875C19.0374 21.1875 21.4999 18.725 21.4999 15.6875C21.4999 12.65 19.0374 10.1875 15.9999 10.1875ZM18.4749 18.1625C18.1503 18.4881 17.7645 18.7463 17.3398 18.9222C16.915 19.0981 16.4596 19.1883 15.9999 19.1875C15.0655 19.1875 14.1874 18.8219 13.5249 18.1625C13.1994 17.8379 12.9412 17.4521 12.7653 17.0274C12.5894 16.6026 12.4992 16.1473 12.4999 15.6875C12.4999 14.7532 12.8655 13.875 13.5249 13.2125C14.1874 12.55 15.0655 12.1875 15.9999 12.1875C16.9343 12.1875 17.8124 12.55 18.4749 13.2125C18.8005 13.5372 19.0586 13.923 19.2345 14.3477C19.4104 14.7725 19.5006 15.2278 19.4999 15.6875C19.4999 16.6219 19.1343 17.5 18.4749 18.1625Z" fill="white"/>
</g>
</svg>
