<svg width="49" height="49" viewBox="0 0 49 49" fill="none" xmlns="http://www.w3.org/2000/svg">
<path d="M24.5 49C38.031 49 49 38.031 49 24.5C49 10.969 38.031 0 24.5 0C10.969 0 0 10.969 0 24.5C0 38.031 10.969 49 24.5 49Z" fill="#9EA4AA"/>
<path fill-rule="evenodd" clip-rule="evenodd" d="M29.5076 16.0745C29.5076 12.7759 32.1847 10.0989 35.4832 10.0989C38.7818 10.0989 41.4588 12.7759 41.4588 16.0745C41.4588 19.373 38.7818 22.0501 35.4832 22.0501C32.1847 22.0501 29.5076 19.373 29.5076 16.0745ZM34.7363 19.2057H36.2302V17.7955H34.7363V19.2057ZM34.7363 16.6541H36.2302V12.7102H34.7363V16.6541ZM27.4102 16.0745C27.4102 20.5203 31.0314 24.1416 35.4772 24.1416C35.8059 24.1416 36.1346 24.1236 36.4513 24.0818V34.2762C36.4513 35.4773 35.4772 36.4513 34.2761 36.4513H14.7239C13.5228 36.4513 12.5488 35.4773 12.5488 34.2762V20.7833C12.5488 20.604 12.5727 20.4307 12.6145 20.2574L14.1264 14.1981C14.3714 13.2301 15.2378 12.5489 16.2358 12.5489H28.2288C27.703 13.6125 27.4102 14.8077 27.4102 16.0745ZM28.3901 27.4879C28.9937 27.4879 29.4777 27.0039 29.4777 26.4003V25.5877C29.4777 24.9841 28.9937 24.5001 28.3901 24.5001H20.6039C20.0064 24.5001 19.5224 24.9841 19.5224 25.5877V26.4003C19.5224 27.0039 20.0064 27.4879 20.6039 27.4879H28.3901Z" fill="white"/>
</svg>
