<svg width="49" height="49" viewBox="0 0 49 49" fill="none" xmlns="http://www.w3.org/2000/svg">
<g clip-path="url(#clip0_5923_6808)">
<path d="M24.5 49C38.031 49 49 38.031 49 24.5C49 10.969 38.031 0 24.5 0C10.969 0 0 10.969 0 24.5C0 38.031 10.969 49 24.5 49Z" fill="#9EA4AA"/>
<path fill-rule="evenodd" clip-rule="evenodd" d="M23.1077 12.6504V23.1077H12.6504V16.2358C12.6504 14.2578 14.2578 12.6504 16.2358 12.6504H23.1077ZM36.5528 23.1077H26.0955V12.6504H32.9675C34.9454 12.6504 36.5528 14.2578 36.5528 16.2358V23.1077ZM23.1077 26.0955H12.6504V32.9675C12.6504 34.9454 14.2578 36.5528 16.2358 36.5528H23.1077V26.0955ZM26.0955 36.5528V26.0955H36.5528V32.9675C36.5528 34.9454 34.9454 36.5528 32.9675 36.5528H26.0955Z" fill="white"/>
</g>
<defs>
<clipPath id="clip0_5923_6808">
<rect width="49" height="49" fill="white"/>
</clipPath>
</defs>
</svg>
