<svg width="49" height="49" viewBox="0 0 49 49" fill="none" xmlns="http://www.w3.org/2000/svg">
<path d="M24.5 49C38.031 49 49 38.031 49 24.5C49 10.969 38.031 0 24.5 0C10.969 0 0 10.969 0 24.5C0 38.031 10.969 49 24.5 49Z" fill="#9EA4AA"/>
<path fill-rule="evenodd" clip-rule="evenodd" d="M29.5016 16.0745C29.5016 12.7759 32.1787 10.0989 35.4772 10.0989C38.7758 10.0989 41.4528 12.7759 41.4528 16.0745C41.4528 19.373 38.7758 22.0501 35.4772 22.0501C32.1787 22.0501 29.5016 19.373 29.5016 16.0745ZM37.6285 19.2834L38.6861 18.2257L36.5349 16.0745L38.6861 13.9233L37.6285 12.8656L35.4772 15.0168L33.326 12.8656L32.2683 13.9233L34.4195 16.0745L32.2683 18.2257L33.326 19.2834L35.4772 17.1322L37.6285 19.2834ZM27.4102 16.0745C27.4102 20.5203 31.0314 24.1416 35.4772 24.1416C35.8059 24.1416 36.1346 24.1236 36.4513 24.0818V34.2762C36.4513 35.4773 35.4772 36.4513 34.2761 36.4513H14.7239C13.5229 36.4513 12.5488 35.4773 12.5488 34.2762V20.7833C12.5488 20.604 12.5727 20.4307 12.6146 20.2574L14.1264 14.1981C14.3714 13.2301 15.2379 12.5489 16.2358 12.5489H28.2288C27.703 13.6125 27.4102 14.8077 27.4102 16.0745ZM28.3902 27.4879C28.9937 27.4879 29.4777 27.0039 29.4777 26.4003V25.5877C29.4777 24.9841 28.9937 24.5001 28.3902 24.5001H20.6039C20.0064 24.5001 19.5224 24.9841 19.5224 25.5877V26.4003C19.5224 27.0039 20.0064 27.4879 20.6039 27.4879H28.3902Z" fill="white"/>
</svg>
