<svg width="49" height="49" viewBox="0 0 49 49" fill="none" xmlns="http://www.w3.org/2000/svg">
<g clip-path="url(#clip0_5923_6827)">
<path d="M24.5 49C38.031 49 49 38.031 49 24.5C49 10.969 38.031 0 24.5 0C10.969 0 0 10.969 0 24.5C0 38.031 10.969 49 24.5 49Z" fill="#9EA4AA"/>
<path fill-rule="evenodd" clip-rule="evenodd" d="M30.6549 12.5489C31.7425 11.061 33.4993 10.0989 35.4772 10.0989C38.7817 10.0989 41.4529 12.7759 41.4529 16.0745C41.4529 19.0384 39.2957 21.5063 36.4513 21.9664C36.1346 22.0202 35.8119 22.0501 35.4772 22.0501C32.1787 22.0501 29.5016 19.373 29.5016 16.0745C29.5016 14.7539 29.9319 13.5349 30.6549 12.5489ZM34.7422 16.8214H39.2V15.3275H36.2302V11.3299H34.7363V16.0745H34.7422V16.8214ZM27.4102 16.0745C27.4102 20.5203 31.0314 24.1416 35.4772 24.1416C35.8059 24.1416 36.1346 24.1236 36.4513 24.0818V34.2762C36.4513 35.4773 35.4772 36.4513 34.2761 36.4513H14.7239C13.5229 36.4513 12.5488 35.4773 12.5488 34.2762V20.7833C12.5488 20.604 12.5727 20.4307 12.6146 20.2574L14.1264 14.1981C14.3714 13.2301 15.2379 12.5489 16.2358 12.5489H28.2288C27.703 13.6125 27.4102 14.8077 27.4102 16.0745ZM28.3902 27.4879C28.9937 27.4879 29.4777 27.0039 29.4777 26.4003V25.5877C29.4777 24.9841 28.9937 24.5001 28.3902 24.5001H20.604C20.0064 24.5001 19.5224 24.9841 19.5224 25.5877V26.4003C19.5224 27.0039 20.0064 27.4879 20.604 27.4879H28.3902Z" fill="white"/>
</g>
<defs>
<clipPath id="clip0_5923_6827">
<rect width="49" height="49" fill="white"/>
</clipPath>
</defs>
</svg>
