<svg width="49" height="49" viewBox="0 0 49 49" fill="none" xmlns="http://www.w3.org/2000/svg">
<path d="M24.5 49C38.031 49 49 38.031 49 24.5C49 10.969 38.031 0 24.5 0C10.969 0 0 10.969 0 24.5C0 38.031 10.969 49 24.5 49Z" fill="#9EA4AA"/>
<path fill-rule="evenodd" clip-rule="evenodd" d="M29.5255 16.0745C29.5255 12.776 32.2026 10.0989 35.5012 10.0989C38.7997 10.0989 41.4768 12.776 41.4768 16.0745C41.4768 19.373 38.7997 22.0501 35.5012 22.0501C32.2026 22.0501 29.5255 19.373 29.5255 16.0745ZM34.8498 18.7336L34.8618 18.7456L39.1582 14.4491L38.1005 13.3914L34.8379 16.6541L33.3081 15.1244L32.2504 16.182L34.8259 18.7575L34.8498 18.7336ZM27.4102 16.0745C27.4102 20.5203 31.0314 24.1416 35.4773 24.1416C35.8059 24.1416 36.1346 24.1236 36.4513 24.0818V34.2762C36.4513 35.4773 35.4772 36.4513 34.2761 36.4513H14.7239C13.5228 36.4513 12.5488 35.4773 12.5488 34.2762V20.7833C12.5488 20.604 12.5727 20.4307 12.6146 20.2574L14.1264 14.1982C14.3714 13.2301 15.2378 12.5489 16.2358 12.5489H28.2288C27.703 13.6125 27.4102 14.8077 27.4102 16.0745ZM28.3902 27.4879C28.9937 27.4879 29.4777 27.0039 29.4777 26.4004V25.5877C29.4777 24.9841 28.9937 24.5001 28.3902 24.5001H20.6039C20.0064 24.5001 19.5224 24.9841 19.5224 25.5877V26.4004C19.5224 27.0039 20.0064 27.4879 20.6039 27.4879H28.3902Z" fill="white"/>
</svg>
